# xmcd
#
# Track frame offsets: 
#        150
#        14310
#        28482
#        45113
#        56470
#        69051
#        80519
#        95610
#        108420
#        121569
#        136452
#        148962
#        160009
#        173441
#        187152
#        199236
#        211394
#        225824
#        239302
#        251631
#        263808
#        277226
#        292276
#        305104
#        318554
#        343921
#
# Disc length: 4795 seconds
#
# Revision: 0
# Processed by: cddbd v1.5.2PL0 Copyright (c) Steve Scherf et al.
# Submitted via: ExactAudioCopy v0.99pb3
#
DISCID=8312b91a
DTITLE=varios - 100 clasicos del bolero vol ,3
DYEAR=1900
DGENRE=Ambient
TTITLE0=inolvidable
TTITLE1=nuestros juramento
TTITLE2=tu me costumbraste
TTITLE3=somos novios
TTITLE4=rayito de luna
TTITLE5=la mentira
TTITLE6=un viejo amor
TTITLE7=linda
TTITLE8=oracion del caribe
TTITLE9=el reloj
TTITLE10=cuando ya no me quieras
TTITLE11=dudas de mi
TTITLE12=un gran amor
TTITLE13=tengo dudas
TTITLE14=lagrimas de sangre
TTITLE15=quizas quizas quizas
TTITLE16=prohibido
TTITLE17=cobardia
TTITLE18=quinceañera
TTITLE19=corazon a corazon
TTITLE20=llevame
TTITLE21=mar y cielo
TTITLE22=somos
TTITLE23=calla corazon
TTITLE24=esta nopche la paso contigo
TTITLE25=canciones completas
EXTD=
EXTT0=
EXTT1=
EXTT2=
EXTT3=
EXTT4=
EXTT5=
EXTT6=
EXTT7=
EXTT8=
EXTT9=
EXTT10=
EXTT11=
EXTT12=
EXTT13=
EXTT14=
EXTT15=
EXTT16=
EXTT17=
EXTT18=
EXTT19=
EXTT20=
EXTT21=
EXTT22=
EXTT23=
EXTT24=
EXTT25=
PLAYORDER=
